<?xml version="1.0" encoding="utf-8"?>
<!-- Generator: Adobe Illustrator 28.0.0, SVG Export Plug-In . SVG Version: 6.00 Build 0)  -->
<svg version="1.1" id="Layer_1" xmlns="http://www.w3.org/2000/svg" xmlns:xlink="http://www.w3.org/1999/xlink" x="0px" y="0px"
	 viewBox="0 0 96 96" style="enable-background:new 0 0 96 96;" xml:space="preserve">
<style type="text/css">
	.st0{fill:#414141;}
</style>
<g>
	<path class="st0" d="M5,4c0.3,0,0.6,0,1,0C6.4,4,6.8,4.2,7,4.5C8.5,6,10,7.5,11.5,9c0.3,0.3,0.5,0.7,0.5,1c0,25.3,0,50.6,0,76
		c0,0.4-0.2,0.8-0.5,1C10,88.5,8.5,90,7,91.5C6.8,91.8,6.4,92,6,92c-0.3,0-0.6,0-1,0c-0.4,0-0.7-0.2-1-0.4c-0.5-0.5-1-1-1.6-1.6
		C2.2,89.7,2,89.4,2,89C2,61.7,2,34.3,2,7c0-0.4,0.2-0.7,0.4-1C3,5.5,3.5,5,4,4.4C4.3,4.2,4.6,4,5,4z"/>
</g>
</svg>
