<?xml version="1.0" encoding="utf-8"?>
<!-- Generator: Adobe Illustrator 28.0.0, SVG Export Plug-In . SVG Version: 6.00 Build 0)  -->
<svg version="1.1" id="Layer_1" xmlns="http://www.w3.org/2000/svg" xmlns:xlink="http://www.w3.org/1999/xlink" x="0px" y="0px"
	 viewBox="0 0 64 64" style="enable-background:new 0 0 64 64;" xml:space="preserve">
<style type="text/css">
	.st0{fill:#FFFFFF;}
</style>
<g>
	<path class="st0" d="M4.9,2c0.7,0,1.4,0,2.2,0c0.4,0,0.8,0.2,1.1,0.5C9.5,4,11,5.5,12.4,6.9c0.3,0.3,0.5,0.6,0.5,1
		c0.2,16.1,0.2,32.1,0,48.2c0,0.4-0.2,0.8-0.5,1c-1.5,1.4-2.9,2.8-4.3,4.3c-0.3,0.3-0.6,0.5-1,0.5c-0.7,0-1.4,0-2.2,0
		c-0.4,0-0.8-0.2-1-0.4C3.4,61,3,60.6,2.5,60.1c-0.3-0.3-0.4-0.6-0.4-1C1.9,41.1,1.9,23,2.1,4.9c0-0.4,0.2-0.7,0.4-1
		C3,3.4,3.4,3,3.9,2.5C4.2,2.2,4.5,2,4.9,2z"/>
</g>
</svg>
